<mxfile host="www.draw.io" modified="2020-02-21T15:20:27.881Z" agent="Mozilla/5.0 (Macintosh; Intel Mac OS X 10_15_3) AppleWebKit/537.36 (KHTML, like Gecko) Chrome/80.0.3987.106 Safari/537.36" etag="NibDkc1Bo2OaR-CcWbX0" version="12.7.3" type="github" pages="4">
  <diagram id="v3NK2iJtWiV4ewWRPjDE" name="recursion">
    <mxGraphModel dx="599" dy="685" grid="1" gridSize="10" guides="1" tooltips="1" connect="1" arrows="1" fold="1" page="1" pageScale="1" pageWidth="1100" pageHeight="850" math="1" shadow="0">
      <root>
        <mxCell id="0" />
        <mxCell id="1" parent="0" />
        <mxCell id="LH0Kjvml57SRlFlZEhaT-7" style="edgeStyle=orthogonalEdgeStyle;rounded=0;orthogonalLoop=1;jettySize=auto;html=1;exitX=1;exitY=0.5;exitDx=0;exitDy=0;" parent="1" source="LH0Kjvml57SRlFlZEhaT-1" target="LH0Kjvml57SRlFlZEhaT-2" edge="1">
          <mxGeometry relative="1" as="geometry" />
        </mxCell>
        <mxCell id="LH0Kjvml57SRlFlZEhaT-12" value="$$f$$" style="text;html=1;align=center;verticalAlign=middle;resizable=0;points=[];labelBackgroundColor=#ffffff;" parent="LH0Kjvml57SRlFlZEhaT-7" vertex="1" connectable="0">
          <mxGeometry x="-0.1167" y="-2" relative="1" as="geometry">
            <mxPoint as="offset" />
          </mxGeometry>
        </mxCell>
        <mxCell id="LH0Kjvml57SRlFlZEhaT-1" value="$$h_1$$" style="ellipse;whiteSpace=wrap;html=1;aspect=fixed;fontStyle=1" parent="1" vertex="1">
          <mxGeometry x="120" y="320" width="80" height="80" as="geometry" />
        </mxCell>
        <mxCell id="LH0Kjvml57SRlFlZEhaT-2" value="$$h_2$$" style="ellipse;whiteSpace=wrap;html=1;aspect=fixed;" parent="1" vertex="1">
          <mxGeometry x="240" y="320" width="80" height="80" as="geometry" />
        </mxCell>
        <mxCell id="LH0Kjvml57SRlFlZEhaT-3" value="..." style="ellipse;whiteSpace=wrap;html=1;aspect=fixed;" parent="1" vertex="1">
          <mxGeometry x="360" y="320" width="80" height="80" as="geometry" />
        </mxCell>
        <mxCell id="LH0Kjvml57SRlFlZEhaT-13" style="edgeStyle=orthogonalEdgeStyle;rounded=0;orthogonalLoop=1;jettySize=auto;html=1;exitX=1;exitY=0.5;exitDx=0;exitDy=0;entryX=0;entryY=0.5;entryDx=0;entryDy=0;" parent="1" source="LH0Kjvml57SRlFlZEhaT-2" target="LH0Kjvml57SRlFlZEhaT-3" edge="1">
          <mxGeometry relative="1" as="geometry">
            <mxPoint x="340" y="400" as="sourcePoint" />
            <mxPoint x="380" y="400" as="targetPoint" />
          </mxGeometry>
        </mxCell>
        <mxCell id="LH0Kjvml57SRlFlZEhaT-14" value="$$f$$" style="text;html=1;align=center;verticalAlign=middle;resizable=0;points=[];labelBackgroundColor=#ffffff;" parent="LH0Kjvml57SRlFlZEhaT-13" vertex="1" connectable="0">
          <mxGeometry x="-0.1167" y="-2" relative="1" as="geometry">
            <mxPoint as="offset" />
          </mxGeometry>
        </mxCell>
        <mxCell id="LH0Kjvml57SRlFlZEhaT-15" style="edgeStyle=orthogonalEdgeStyle;rounded=0;orthogonalLoop=1;jettySize=auto;html=1;exitX=1;exitY=0.5;exitDx=0;exitDy=0;" parent="1" target="LH0Kjvml57SRlFlZEhaT-17" edge="1">
          <mxGeometry relative="1" as="geometry">
            <mxPoint x="440" y="360" as="sourcePoint" />
          </mxGeometry>
        </mxCell>
        <mxCell id="LH0Kjvml57SRlFlZEhaT-16" value="$$f$$" style="text;html=1;align=center;verticalAlign=middle;resizable=0;points=[];labelBackgroundColor=#ffffff;" parent="LH0Kjvml57SRlFlZEhaT-15" vertex="1" connectable="0">
          <mxGeometry x="-0.1167" y="-2" relative="1" as="geometry">
            <mxPoint as="offset" />
          </mxGeometry>
        </mxCell>
        <mxCell id="LH0Kjvml57SRlFlZEhaT-17" value="$$h_t$$" style="ellipse;whiteSpace=wrap;html=1;aspect=fixed;" parent="1" vertex="1">
          <mxGeometry x="480" y="320" width="80" height="80" as="geometry" />
        </mxCell>
        <mxCell id="LH0Kjvml57SRlFlZEhaT-21" style="edgeStyle=orthogonalEdgeStyle;rounded=0;orthogonalLoop=1;jettySize=auto;html=1;exitX=1;exitY=0.5;exitDx=0;exitDy=0;" parent="1" source="LH0Kjvml57SRlFlZEhaT-18" edge="1">
          <mxGeometry relative="1" as="geometry">
            <mxPoint x="720" y="360" as="targetPoint" />
          </mxGeometry>
        </mxCell>
        <mxCell id="LH0Kjvml57SRlFlZEhaT-18" value="..." style="ellipse;whiteSpace=wrap;html=1;aspect=fixed;" parent="1" vertex="1">
          <mxGeometry x="600" y="320" width="80" height="80" as="geometry" />
        </mxCell>
        <mxCell id="LH0Kjvml57SRlFlZEhaT-19" style="edgeStyle=orthogonalEdgeStyle;rounded=0;orthogonalLoop=1;jettySize=auto;html=1;exitX=1;exitY=0.5;exitDx=0;exitDy=0;entryX=0;entryY=0.5;entryDx=0;entryDy=0;" parent="1" source="LH0Kjvml57SRlFlZEhaT-17" target="LH0Kjvml57SRlFlZEhaT-18" edge="1">
          <mxGeometry relative="1" as="geometry">
            <mxPoint x="580" y="400" as="sourcePoint" />
            <mxPoint x="620" y="400" as="targetPoint" />
          </mxGeometry>
        </mxCell>
        <mxCell id="LH0Kjvml57SRlFlZEhaT-20" value="$$f$$" style="text;html=1;align=center;verticalAlign=middle;resizable=0;points=[];labelBackgroundColor=#ffffff;" parent="LH0Kjvml57SRlFlZEhaT-19" vertex="1" connectable="0">
          <mxGeometry x="-0.1167" y="-2" relative="1" as="geometry">
            <mxPoint as="offset" />
          </mxGeometry>
        </mxCell>
        <mxCell id="LH0Kjvml57SRlFlZEhaT-35" style="edgeStyle=orthogonalEdgeStyle;rounded=0;orthogonalLoop=1;jettySize=auto;html=1;exitX=0.5;exitY=1;exitDx=0;exitDy=0;entryX=0.5;entryY=0;entryDx=0;entryDy=0;" parent="1" source="LH0Kjvml57SRlFlZEhaT-24" target="LH0Kjvml57SRlFlZEhaT-1" edge="1">
          <mxGeometry relative="1" as="geometry" />
        </mxCell>
        <mxCell id="LH0Kjvml57SRlFlZEhaT-24" value="$$x_1$$" style="ellipse;whiteSpace=wrap;html=1;aspect=fixed;fontStyle=1" parent="1" vertex="1">
          <mxGeometry x="120" y="200" width="80" height="80" as="geometry" />
        </mxCell>
        <mxCell id="LH0Kjvml57SRlFlZEhaT-36" style="edgeStyle=orthogonalEdgeStyle;rounded=0;orthogonalLoop=1;jettySize=auto;html=1;exitX=0.5;exitY=1;exitDx=0;exitDy=0;entryX=0.5;entryY=0;entryDx=0;entryDy=0;" parent="1" source="LH0Kjvml57SRlFlZEhaT-25" target="LH0Kjvml57SRlFlZEhaT-2" edge="1">
          <mxGeometry relative="1" as="geometry" />
        </mxCell>
        <mxCell id="LH0Kjvml57SRlFlZEhaT-25" value="$$x_2$$" style="ellipse;whiteSpace=wrap;html=1;aspect=fixed;" parent="1" vertex="1">
          <mxGeometry x="240" y="200" width="80" height="80" as="geometry" />
        </mxCell>
        <mxCell id="LH0Kjvml57SRlFlZEhaT-37" style="edgeStyle=orthogonalEdgeStyle;rounded=0;orthogonalLoop=1;jettySize=auto;html=1;exitX=0.5;exitY=1;exitDx=0;exitDy=0;entryX=0.5;entryY=0;entryDx=0;entryDy=0;" parent="1" source="LH0Kjvml57SRlFlZEhaT-26" target="LH0Kjvml57SRlFlZEhaT-3" edge="1">
          <mxGeometry relative="1" as="geometry" />
        </mxCell>
        <mxCell id="LH0Kjvml57SRlFlZEhaT-26" value="..." style="ellipse;whiteSpace=wrap;html=1;aspect=fixed;" parent="1" vertex="1">
          <mxGeometry x="360" y="200" width="80" height="80" as="geometry" />
        </mxCell>
        <mxCell id="LH0Kjvml57SRlFlZEhaT-38" style="edgeStyle=orthogonalEdgeStyle;rounded=0;orthogonalLoop=1;jettySize=auto;html=1;exitX=0.5;exitY=1;exitDx=0;exitDy=0;entryX=0.5;entryY=0;entryDx=0;entryDy=0;" parent="1" source="LH0Kjvml57SRlFlZEhaT-31" target="LH0Kjvml57SRlFlZEhaT-17" edge="1">
          <mxGeometry relative="1" as="geometry" />
        </mxCell>
        <mxCell id="LH0Kjvml57SRlFlZEhaT-31" value="$$x_t$$" style="ellipse;whiteSpace=wrap;html=1;aspect=fixed;" parent="1" vertex="1">
          <mxGeometry x="480" y="200" width="80" height="80" as="geometry" />
        </mxCell>
        <mxCell id="LH0Kjvml57SRlFlZEhaT-39" style="edgeStyle=orthogonalEdgeStyle;rounded=0;orthogonalLoop=1;jettySize=auto;html=1;exitX=0.5;exitY=1;exitDx=0;exitDy=0;entryX=0.5;entryY=0;entryDx=0;entryDy=0;" parent="1" source="LH0Kjvml57SRlFlZEhaT-32" target="LH0Kjvml57SRlFlZEhaT-18" edge="1">
          <mxGeometry relative="1" as="geometry" />
        </mxCell>
        <mxCell id="LH0Kjvml57SRlFlZEhaT-32" value="..." style="ellipse;whiteSpace=wrap;html=1;aspect=fixed;" parent="1" vertex="1">
          <mxGeometry x="600" y="200" width="80" height="80" as="geometry" />
        </mxCell>
      </root>
    </mxGraphModel>
  </diagram>
  <diagram id="o5azgTFv1BSCoJg6WtHB" name="hidden-recursion">
    <mxGraphModel dx="599" dy="685" grid="1" gridSize="10" guides="1" tooltips="1" connect="1" arrows="1" fold="1" page="1" pageScale="1" pageWidth="1100" pageHeight="850" math="1" shadow="0">
      <root>
        <mxCell id="JuaKtVvA1tjqQAxgrmdK-0" />
        <mxCell id="JuaKtVvA1tjqQAxgrmdK-1" parent="JuaKtVvA1tjqQAxgrmdK-0" />
        <mxCell id="JuaKtVvA1tjqQAxgrmdK-8" style="edgeStyle=orthogonalEdgeStyle;rounded=0;orthogonalLoop=1;jettySize=auto;html=1;exitX=0.5;exitY=0;exitDx=0;exitDy=0;entryX=0.5;entryY=1;entryDx=0;entryDy=0;" parent="JuaKtVvA1tjqQAxgrmdK-1" source="JuaKtVvA1tjqQAxgrmdK-2" target="JuaKtVvA1tjqQAxgrmdK-3" edge="1">
          <mxGeometry relative="1" as="geometry" />
        </mxCell>
        <mxCell id="JuaKtVvA1tjqQAxgrmdK-34" value="$$\mathbf V$$" style="text;html=1;align=center;verticalAlign=middle;resizable=0;points=[];labelBackgroundColor=#ffffff;" parent="JuaKtVvA1tjqQAxgrmdK-8" vertex="1" connectable="0">
          <mxGeometry x="-0.4" y="-1" relative="1" as="geometry">
            <mxPoint x="-1" y="-16" as="offset" />
          </mxGeometry>
        </mxCell>
        <mxCell id="JuaKtVvA1tjqQAxgrmdK-30" style="edgeStyle=orthogonalEdgeStyle;rounded=0;orthogonalLoop=1;jettySize=auto;html=1;exitX=1;exitY=0.5;exitDx=0;exitDy=0;" parent="JuaKtVvA1tjqQAxgrmdK-1" source="JuaKtVvA1tjqQAxgrmdK-2" target="JuaKtVvA1tjqQAxgrmdK-13" edge="1">
          <mxGeometry relative="1" as="geometry" />
        </mxCell>
        <mxCell id="JuaKtVvA1tjqQAxgrmdK-35" value="$$\mathbf W$$" style="text;html=1;align=center;verticalAlign=middle;resizable=0;points=[];labelBackgroundColor=#ffffff;" parent="JuaKtVvA1tjqQAxgrmdK-30" vertex="1" connectable="0">
          <mxGeometry x="0.125" y="-1" relative="1" as="geometry">
            <mxPoint as="offset" />
          </mxGeometry>
        </mxCell>
        <mxCell id="JuaKtVvA1tjqQAxgrmdK-2" value="&lt;span style=&quot;white-space: normal&quot;&gt;$$\mathbf h_{t-1}$$&lt;/span&gt;" style="ellipse;whiteSpace=wrap;html=1;aspect=fixed;" parent="JuaKtVvA1tjqQAxgrmdK-1" vertex="1">
          <mxGeometry x="120" y="480" width="80" height="80" as="geometry" />
        </mxCell>
        <mxCell id="JuaKtVvA1tjqQAxgrmdK-9" style="edgeStyle=orthogonalEdgeStyle;rounded=0;orthogonalLoop=1;jettySize=auto;html=1;exitX=0.5;exitY=0;exitDx=0;exitDy=0;entryX=0.5;entryY=1;entryDx=0;entryDy=0;" parent="JuaKtVvA1tjqQAxgrmdK-1" source="JuaKtVvA1tjqQAxgrmdK-3" target="JuaKtVvA1tjqQAxgrmdK-4" edge="1">
          <mxGeometry relative="1" as="geometry" />
        </mxCell>
        <mxCell id="JuaKtVvA1tjqQAxgrmdK-3" value="&lt;span style=&quot;white-space: normal&quot;&gt;$$\mathbf o_{t-1}$$&lt;/span&gt;" style="ellipse;whiteSpace=wrap;html=1;aspect=fixed;" parent="JuaKtVvA1tjqQAxgrmdK-1" vertex="1">
          <mxGeometry x="120" y="320" width="80" height="80" as="geometry" />
        </mxCell>
        <mxCell id="JuaKtVvA1tjqQAxgrmdK-10" style="edgeStyle=orthogonalEdgeStyle;rounded=0;orthogonalLoop=1;jettySize=auto;html=1;exitX=0.5;exitY=0;exitDx=0;exitDy=0;entryX=0.5;entryY=1;entryDx=0;entryDy=0;" parent="JuaKtVvA1tjqQAxgrmdK-1" source="JuaKtVvA1tjqQAxgrmdK-4" target="JuaKtVvA1tjqQAxgrmdK-5" edge="1">
          <mxGeometry relative="1" as="geometry" />
        </mxCell>
        <mxCell id="JuaKtVvA1tjqQAxgrmdK-4" value="&lt;span style=&quot;white-space: normal&quot;&gt;$$L_{t-1}$$&lt;/span&gt;" style="ellipse;whiteSpace=wrap;html=1;aspect=fixed;" parent="JuaKtVvA1tjqQAxgrmdK-1" vertex="1">
          <mxGeometry x="120" y="200" width="80" height="80" as="geometry" />
        </mxCell>
        <mxCell id="JuaKtVvA1tjqQAxgrmdK-5" value="&lt;span style=&quot;white-space: normal&quot;&gt;$$y_{t-1}$$&lt;/span&gt;" style="ellipse;whiteSpace=wrap;html=1;aspect=fixed;" parent="JuaKtVvA1tjqQAxgrmdK-1" vertex="1">
          <mxGeometry x="120" y="80" width="80" height="80" as="geometry" />
        </mxCell>
        <mxCell id="JuaKtVvA1tjqQAxgrmdK-7" value="$$\mathbf U$$" style="edgeStyle=orthogonalEdgeStyle;rounded=0;orthogonalLoop=1;jettySize=auto;html=1;exitX=0.5;exitY=0;exitDx=0;exitDy=0;entryX=0.5;entryY=1;entryDx=0;entryDy=0;" parent="JuaKtVvA1tjqQAxgrmdK-1" source="JuaKtVvA1tjqQAxgrmdK-6" target="JuaKtVvA1tjqQAxgrmdK-2" edge="1">
          <mxGeometry relative="1" as="geometry" />
        </mxCell>
        <mxCell id="JuaKtVvA1tjqQAxgrmdK-6" value="$$\mathbf x_{t-1}$$" style="ellipse;whiteSpace=wrap;html=1;aspect=fixed;" parent="JuaKtVvA1tjqQAxgrmdK-1" vertex="1">
          <mxGeometry x="120" y="620" width="80" height="80" as="geometry" />
        </mxCell>
        <mxCell id="JuaKtVvA1tjqQAxgrmdK-11" value="" style="endArrow=classic;html=1;entryX=0;entryY=0.5;entryDx=0;entryDy=0;" parent="JuaKtVvA1tjqQAxgrmdK-1" target="JuaKtVvA1tjqQAxgrmdK-2" edge="1">
          <mxGeometry width="50" height="50" relative="1" as="geometry">
            <mxPoint x="60" y="520" as="sourcePoint" />
            <mxPoint x="170" y="700" as="targetPoint" />
          </mxGeometry>
        </mxCell>
        <mxCell id="JuaKtVvA1tjqQAxgrmdK-33" value="$$\mathbf W$$" style="text;html=1;align=center;verticalAlign=middle;resizable=0;points=[];labelBackgroundColor=#ffffff;" parent="JuaKtVvA1tjqQAxgrmdK-11" vertex="1" connectable="0">
          <mxGeometry x="0.1667" y="1" relative="1" as="geometry">
            <mxPoint as="offset" />
          </mxGeometry>
        </mxCell>
        <mxCell id="JuaKtVvA1tjqQAxgrmdK-12" style="edgeStyle=orthogonalEdgeStyle;rounded=0;orthogonalLoop=1;jettySize=auto;html=1;exitX=0.5;exitY=0;exitDx=0;exitDy=0;entryX=0.5;entryY=1;entryDx=0;entryDy=0;" parent="JuaKtVvA1tjqQAxgrmdK-1" source="JuaKtVvA1tjqQAxgrmdK-13" target="JuaKtVvA1tjqQAxgrmdK-15" edge="1">
          <mxGeometry relative="1" as="geometry" />
        </mxCell>
        <mxCell id="JuaKtVvA1tjqQAxgrmdK-38" value="$$\mathbf V$$" style="text;html=1;align=center;verticalAlign=middle;resizable=0;points=[];labelBackgroundColor=#ffffff;" parent="JuaKtVvA1tjqQAxgrmdK-12" vertex="1" connectable="0">
          <mxGeometry x="-0.125" relative="1" as="geometry">
            <mxPoint y="-5" as="offset" />
          </mxGeometry>
        </mxCell>
        <mxCell id="JuaKtVvA1tjqQAxgrmdK-31" style="edgeStyle=orthogonalEdgeStyle;rounded=0;orthogonalLoop=1;jettySize=auto;html=1;exitX=1;exitY=0.5;exitDx=0;exitDy=0;entryX=0;entryY=0.5;entryDx=0;entryDy=0;" parent="JuaKtVvA1tjqQAxgrmdK-1" source="JuaKtVvA1tjqQAxgrmdK-13" target="JuaKtVvA1tjqQAxgrmdK-22" edge="1">
          <mxGeometry relative="1" as="geometry" />
        </mxCell>
        <mxCell id="JuaKtVvA1tjqQAxgrmdK-36" value="$$\mathbf W$$" style="text;html=1;align=center;verticalAlign=middle;resizable=0;points=[];labelBackgroundColor=#ffffff;" parent="JuaKtVvA1tjqQAxgrmdK-31" vertex="1" connectable="0">
          <mxGeometry x="0.025" y="-1" relative="1" as="geometry">
            <mxPoint as="offset" />
          </mxGeometry>
        </mxCell>
        <mxCell id="JuaKtVvA1tjqQAxgrmdK-13" value="&lt;span style=&quot;white-space: normal&quot;&gt;$$\mathbf h_t$$&lt;/span&gt;" style="ellipse;whiteSpace=wrap;html=1;aspect=fixed;" parent="JuaKtVvA1tjqQAxgrmdK-1" vertex="1">
          <mxGeometry x="280" y="480" width="80" height="80" as="geometry" />
        </mxCell>
        <mxCell id="JuaKtVvA1tjqQAxgrmdK-14" style="edgeStyle=orthogonalEdgeStyle;rounded=0;orthogonalLoop=1;jettySize=auto;html=1;exitX=0.5;exitY=0;exitDx=0;exitDy=0;entryX=0.5;entryY=1;entryDx=0;entryDy=0;" parent="JuaKtVvA1tjqQAxgrmdK-1" source="JuaKtVvA1tjqQAxgrmdK-15" target="JuaKtVvA1tjqQAxgrmdK-17" edge="1">
          <mxGeometry relative="1" as="geometry" />
        </mxCell>
        <mxCell id="JuaKtVvA1tjqQAxgrmdK-15" value="&lt;span style=&quot;white-space: normal&quot;&gt;$$\mathbf o_{t}$$&lt;/span&gt;" style="ellipse;whiteSpace=wrap;html=1;aspect=fixed;" parent="JuaKtVvA1tjqQAxgrmdK-1" vertex="1">
          <mxGeometry x="280" y="320" width="80" height="80" as="geometry" />
        </mxCell>
        <mxCell id="JuaKtVvA1tjqQAxgrmdK-16" style="edgeStyle=orthogonalEdgeStyle;rounded=0;orthogonalLoop=1;jettySize=auto;html=1;exitX=0.5;exitY=0;exitDx=0;exitDy=0;entryX=0.5;entryY=1;entryDx=0;entryDy=0;" parent="JuaKtVvA1tjqQAxgrmdK-1" source="JuaKtVvA1tjqQAxgrmdK-17" target="JuaKtVvA1tjqQAxgrmdK-18" edge="1">
          <mxGeometry relative="1" as="geometry" />
        </mxCell>
        <mxCell id="JuaKtVvA1tjqQAxgrmdK-17" value="&lt;span style=&quot;white-space: normal&quot;&gt;$$L_{t}$$&lt;/span&gt;" style="ellipse;whiteSpace=wrap;html=1;aspect=fixed;" parent="JuaKtVvA1tjqQAxgrmdK-1" vertex="1">
          <mxGeometry x="280" y="200" width="80" height="80" as="geometry" />
        </mxCell>
        <mxCell id="JuaKtVvA1tjqQAxgrmdK-18" value="&lt;span style=&quot;white-space: normal&quot;&gt;$$y_{t}$$&lt;/span&gt;" style="ellipse;whiteSpace=wrap;html=1;aspect=fixed;" parent="JuaKtVvA1tjqQAxgrmdK-1" vertex="1">
          <mxGeometry x="280" y="80" width="80" height="80" as="geometry" />
        </mxCell>
        <mxCell id="JuaKtVvA1tjqQAxgrmdK-19" style="edgeStyle=orthogonalEdgeStyle;rounded=0;orthogonalLoop=1;jettySize=auto;html=1;exitX=0.5;exitY=0;exitDx=0;exitDy=0;entryX=0.5;entryY=1;entryDx=0;entryDy=0;" parent="JuaKtVvA1tjqQAxgrmdK-1" source="JuaKtVvA1tjqQAxgrmdK-20" target="JuaKtVvA1tjqQAxgrmdK-13" edge="1">
          <mxGeometry relative="1" as="geometry" />
        </mxCell>
        <mxCell id="k6_Hyij2X_vBOaW3-swW-0" value="$$\mathbf U$$" style="text;html=1;align=center;verticalAlign=middle;resizable=0;points=[];labelBackgroundColor=#ffffff;" parent="JuaKtVvA1tjqQAxgrmdK-19" vertex="1" connectable="0">
          <mxGeometry x="-0.0444" y="-2" relative="1" as="geometry">
            <mxPoint as="offset" />
          </mxGeometry>
        </mxCell>
        <mxCell id="JuaKtVvA1tjqQAxgrmdK-20" value="$$\mathbf x_{t}$$" style="ellipse;whiteSpace=wrap;html=1;aspect=fixed;" parent="JuaKtVvA1tjqQAxgrmdK-1" vertex="1">
          <mxGeometry x="280" y="620" width="80" height="80" as="geometry" />
        </mxCell>
        <mxCell id="JuaKtVvA1tjqQAxgrmdK-21" style="edgeStyle=orthogonalEdgeStyle;rounded=0;orthogonalLoop=1;jettySize=auto;html=1;exitX=0.5;exitY=0;exitDx=0;exitDy=0;entryX=0.5;entryY=1;entryDx=0;entryDy=0;fontStyle=1" parent="JuaKtVvA1tjqQAxgrmdK-1" source="JuaKtVvA1tjqQAxgrmdK-22" target="JuaKtVvA1tjqQAxgrmdK-24" edge="1">
          <mxGeometry relative="1" as="geometry" />
        </mxCell>
        <mxCell id="JuaKtVvA1tjqQAxgrmdK-39" value="$$\mathbf V$$" style="text;html=1;align=center;verticalAlign=middle;resizable=0;points=[];labelBackgroundColor=#ffffff;" parent="JuaKtVvA1tjqQAxgrmdK-21" vertex="1" connectable="0">
          <mxGeometry x="-0.1583" relative="1" as="geometry">
            <mxPoint y="-6" as="offset" />
          </mxGeometry>
        </mxCell>
        <mxCell id="JuaKtVvA1tjqQAxgrmdK-32" style="edgeStyle=orthogonalEdgeStyle;rounded=0;orthogonalLoop=1;jettySize=auto;html=1;exitX=1;exitY=0.5;exitDx=0;exitDy=0;" parent="JuaKtVvA1tjqQAxgrmdK-1" source="JuaKtVvA1tjqQAxgrmdK-22" edge="1">
          <mxGeometry relative="1" as="geometry">
            <mxPoint x="600" y="520" as="targetPoint" />
          </mxGeometry>
        </mxCell>
        <mxCell id="JuaKtVvA1tjqQAxgrmdK-37" value="$$\mathbf W$$" style="text;html=1;align=center;verticalAlign=middle;resizable=0;points=[];labelBackgroundColor=#ffffff;" parent="JuaKtVvA1tjqQAxgrmdK-32" vertex="1" connectable="0">
          <mxGeometry x="0.025" y="-2" relative="1" as="geometry">
            <mxPoint as="offset" />
          </mxGeometry>
        </mxCell>
        <mxCell id="JuaKtVvA1tjqQAxgrmdK-22" value="&lt;span style=&quot;white-space: normal&quot;&gt;$$\mathbf h_{t+1}$$&lt;/span&gt;" style="ellipse;whiteSpace=wrap;html=1;aspect=fixed;fontStyle=1" parent="JuaKtVvA1tjqQAxgrmdK-1" vertex="1">
          <mxGeometry x="440" y="480" width="80" height="80" as="geometry" />
        </mxCell>
        <mxCell id="JuaKtVvA1tjqQAxgrmdK-23" style="edgeStyle=orthogonalEdgeStyle;rounded=0;orthogonalLoop=1;jettySize=auto;html=1;exitX=0.5;exitY=0;exitDx=0;exitDy=0;entryX=0.5;entryY=1;entryDx=0;entryDy=0;fontStyle=1" parent="JuaKtVvA1tjqQAxgrmdK-1" source="JuaKtVvA1tjqQAxgrmdK-24" target="JuaKtVvA1tjqQAxgrmdK-26" edge="1">
          <mxGeometry relative="1" as="geometry" />
        </mxCell>
        <mxCell id="JuaKtVvA1tjqQAxgrmdK-24" value="&lt;span style=&quot;white-space: normal&quot;&gt;$$\mathbf o_{t+1}$$&lt;/span&gt;" style="ellipse;whiteSpace=wrap;html=1;aspect=fixed;fontStyle=1" parent="JuaKtVvA1tjqQAxgrmdK-1" vertex="1">
          <mxGeometry x="440" y="320" width="80" height="80" as="geometry" />
        </mxCell>
        <mxCell id="JuaKtVvA1tjqQAxgrmdK-25" style="edgeStyle=orthogonalEdgeStyle;rounded=0;orthogonalLoop=1;jettySize=auto;html=1;exitX=0.5;exitY=0;exitDx=0;exitDy=0;entryX=0.5;entryY=1;entryDx=0;entryDy=0;fontStyle=1" parent="JuaKtVvA1tjqQAxgrmdK-1" source="JuaKtVvA1tjqQAxgrmdK-26" target="JuaKtVvA1tjqQAxgrmdK-27" edge="1">
          <mxGeometry relative="1" as="geometry" />
        </mxCell>
        <mxCell id="JuaKtVvA1tjqQAxgrmdK-26" value="&lt;span style=&quot;white-space: normal&quot;&gt;$$L_{t+1}$$&lt;/span&gt;" style="ellipse;whiteSpace=wrap;html=1;aspect=fixed;fontStyle=1" parent="JuaKtVvA1tjqQAxgrmdK-1" vertex="1">
          <mxGeometry x="440" y="200" width="80" height="80" as="geometry" />
        </mxCell>
        <mxCell id="JuaKtVvA1tjqQAxgrmdK-27" value="&lt;span style=&quot;white-space: normal&quot;&gt;$$y_{t+1}$$&lt;/span&gt;" style="ellipse;whiteSpace=wrap;html=1;aspect=fixed;fontStyle=1" parent="JuaKtVvA1tjqQAxgrmdK-1" vertex="1">
          <mxGeometry x="440" y="80" width="80" height="80" as="geometry" />
        </mxCell>
        <mxCell id="JuaKtVvA1tjqQAxgrmdK-28" style="edgeStyle=orthogonalEdgeStyle;rounded=0;orthogonalLoop=1;jettySize=auto;html=1;exitX=0.5;exitY=0;exitDx=0;exitDy=0;entryX=0.5;entryY=1;entryDx=0;entryDy=0;fontStyle=1" parent="JuaKtVvA1tjqQAxgrmdK-1" source="JuaKtVvA1tjqQAxgrmdK-29" target="JuaKtVvA1tjqQAxgrmdK-22" edge="1">
          <mxGeometry relative="1" as="geometry" />
        </mxCell>
        <mxCell id="k6_Hyij2X_vBOaW3-swW-1" value="$$\mathbf U$$" style="text;html=1;align=center;verticalAlign=middle;resizable=0;points=[];labelBackgroundColor=#ffffff;" parent="JuaKtVvA1tjqQAxgrmdK-28" vertex="1" connectable="0">
          <mxGeometry x="-0.1111" y="-1" relative="1" as="geometry">
            <mxPoint as="offset" />
          </mxGeometry>
        </mxCell>
        <mxCell id="JuaKtVvA1tjqQAxgrmdK-29" value="$$\mathbf x_{t+1}$$" style="ellipse;whiteSpace=wrap;html=1;aspect=fixed;fontStyle=1" parent="JuaKtVvA1tjqQAxgrmdK-1" vertex="1">
          <mxGeometry x="440" y="620" width="80" height="80" as="geometry" />
        </mxCell>
      </root>
    </mxGraphModel>
  </diagram>
  <diagram id="svPprZ8VGCWIrUfTfaUe" name="output-hidden-recursion">
    <mxGraphModel dx="599" dy="685" grid="1" gridSize="10" guides="1" tooltips="1" connect="1" arrows="1" fold="1" page="1" pageScale="1" pageWidth="1100" pageHeight="850" math="1" shadow="0">
      <root>
        <mxCell id="xWk239bcf9PCL0d0337z-0" />
        <mxCell id="xWk239bcf9PCL0d0337z-1" parent="xWk239bcf9PCL0d0337z-0" />
        <mxCell id="xWk239bcf9PCL0d0337z-2" style="edgeStyle=orthogonalEdgeStyle;rounded=0;orthogonalLoop=1;jettySize=auto;html=1;exitX=0.5;exitY=0;exitDx=0;exitDy=0;entryX=0.5;entryY=1;entryDx=0;entryDy=0;" parent="xWk239bcf9PCL0d0337z-1" source="xWk239bcf9PCL0d0337z-6" target="xWk239bcf9PCL0d0337z-8" edge="1">
          <mxGeometry relative="1" as="geometry" />
        </mxCell>
        <mxCell id="xWk239bcf9PCL0d0337z-3" value="$$\mathbf V$$" style="text;html=1;align=center;verticalAlign=middle;resizable=0;points=[];labelBackgroundColor=#ffffff;" parent="xWk239bcf9PCL0d0337z-2" vertex="1" connectable="0">
          <mxGeometry x="-0.4" y="-1" relative="1" as="geometry">
            <mxPoint x="-1" y="-16" as="offset" />
          </mxGeometry>
        </mxCell>
        <mxCell id="xWk239bcf9PCL0d0337z-4" style="rounded=0;orthogonalLoop=1;jettySize=auto;html=1;exitX=1;exitY=0.5;exitDx=0;exitDy=0;entryX=0;entryY=0.5;entryDx=0;entryDy=0;" parent="xWk239bcf9PCL0d0337z-1" source="xWk239bcf9PCL0d0337z-8" target="xWk239bcf9PCL0d0337z-20" edge="1">
          <mxGeometry relative="1" as="geometry" />
        </mxCell>
        <mxCell id="xWk239bcf9PCL0d0337z-5" value="$$\mathbf W$$" style="text;html=1;align=center;verticalAlign=middle;resizable=0;points=[];labelBackgroundColor=#ffffff;" parent="xWk239bcf9PCL0d0337z-4" vertex="1" connectable="0">
          <mxGeometry x="0.125" y="-1" relative="1" as="geometry">
            <mxPoint as="offset" />
          </mxGeometry>
        </mxCell>
        <mxCell id="xWk239bcf9PCL0d0337z-6" value="&lt;span style=&quot;white-space: normal&quot;&gt;$$\mathbf h_{t-1}$$&lt;/span&gt;" style="ellipse;whiteSpace=wrap;html=1;aspect=fixed;" parent="xWk239bcf9PCL0d0337z-1" vertex="1">
          <mxGeometry x="120" y="480" width="80" height="80" as="geometry" />
        </mxCell>
        <mxCell id="xWk239bcf9PCL0d0337z-7" style="edgeStyle=orthogonalEdgeStyle;rounded=0;orthogonalLoop=1;jettySize=auto;html=1;exitX=0.5;exitY=0;exitDx=0;exitDy=0;entryX=0.5;entryY=1;entryDx=0;entryDy=0;" parent="xWk239bcf9PCL0d0337z-1" source="xWk239bcf9PCL0d0337z-8" target="xWk239bcf9PCL0d0337z-10" edge="1">
          <mxGeometry relative="1" as="geometry" />
        </mxCell>
        <mxCell id="xWk239bcf9PCL0d0337z-8" value="&lt;span style=&quot;white-space: normal&quot;&gt;$$\mathbf o_{t-1}$$&lt;/span&gt;" style="ellipse;whiteSpace=wrap;html=1;aspect=fixed;" parent="xWk239bcf9PCL0d0337z-1" vertex="1">
          <mxGeometry x="120" y="320" width="80" height="80" as="geometry" />
        </mxCell>
        <mxCell id="xWk239bcf9PCL0d0337z-9" style="edgeStyle=orthogonalEdgeStyle;rounded=0;orthogonalLoop=1;jettySize=auto;html=1;exitX=0.5;exitY=0;exitDx=0;exitDy=0;entryX=0.5;entryY=1;entryDx=0;entryDy=0;" parent="xWk239bcf9PCL0d0337z-1" source="xWk239bcf9PCL0d0337z-10" target="xWk239bcf9PCL0d0337z-11" edge="1">
          <mxGeometry relative="1" as="geometry" />
        </mxCell>
        <mxCell id="xWk239bcf9PCL0d0337z-10" value="&lt;span style=&quot;white-space: normal&quot;&gt;$$L_{t-1}$$&lt;/span&gt;" style="ellipse;whiteSpace=wrap;html=1;aspect=fixed;" parent="xWk239bcf9PCL0d0337z-1" vertex="1">
          <mxGeometry x="120" y="200" width="80" height="80" as="geometry" />
        </mxCell>
        <mxCell id="xWk239bcf9PCL0d0337z-11" value="&lt;span style=&quot;white-space: normal&quot;&gt;$$y_{t-1}$$&lt;/span&gt;" style="ellipse;whiteSpace=wrap;html=1;aspect=fixed;" parent="xWk239bcf9PCL0d0337z-1" vertex="1">
          <mxGeometry x="120" y="80" width="80" height="80" as="geometry" />
        </mxCell>
        <mxCell id="xWk239bcf9PCL0d0337z-12" value="$$\mathbf U$$" style="edgeStyle=orthogonalEdgeStyle;rounded=0;orthogonalLoop=1;jettySize=auto;html=1;exitX=0.5;exitY=0;exitDx=0;exitDy=0;entryX=0.5;entryY=1;entryDx=0;entryDy=0;" parent="xWk239bcf9PCL0d0337z-1" source="xWk239bcf9PCL0d0337z-13" target="xWk239bcf9PCL0d0337z-6" edge="1">
          <mxGeometry relative="1" as="geometry" />
        </mxCell>
        <mxCell id="xWk239bcf9PCL0d0337z-13" value="$$\mathbf x_{t-1}$$" style="ellipse;whiteSpace=wrap;html=1;aspect=fixed;" parent="xWk239bcf9PCL0d0337z-1" vertex="1">
          <mxGeometry x="120" y="620" width="80" height="80" as="geometry" />
        </mxCell>
        <mxCell id="xWk239bcf9PCL0d0337z-14" value="" style="endArrow=classic;html=1;entryX=0;entryY=0.5;entryDx=0;entryDy=0;" parent="xWk239bcf9PCL0d0337z-1" target="xWk239bcf9PCL0d0337z-6" edge="1">
          <mxGeometry width="50" height="50" relative="1" as="geometry">
            <mxPoint x="40" y="360" as="sourcePoint" />
            <mxPoint x="170" y="700" as="targetPoint" />
          </mxGeometry>
        </mxCell>
        <mxCell id="xWk239bcf9PCL0d0337z-15" value="$$\mathbf W$$" style="text;html=1;align=center;verticalAlign=middle;resizable=0;points=[];labelBackgroundColor=#ffffff;" parent="xWk239bcf9PCL0d0337z-14" vertex="1" connectable="0">
          <mxGeometry x="0.1667" y="1" relative="1" as="geometry">
            <mxPoint as="offset" />
          </mxGeometry>
        </mxCell>
        <mxCell id="xWk239bcf9PCL0d0337z-16" style="edgeStyle=orthogonalEdgeStyle;rounded=0;orthogonalLoop=1;jettySize=auto;html=1;exitX=0.5;exitY=0;exitDx=0;exitDy=0;entryX=0.5;entryY=1;entryDx=0;entryDy=0;" parent="xWk239bcf9PCL0d0337z-1" source="xWk239bcf9PCL0d0337z-20" target="xWk239bcf9PCL0d0337z-22" edge="1">
          <mxGeometry relative="1" as="geometry" />
        </mxCell>
        <mxCell id="xWk239bcf9PCL0d0337z-17" value="$$\mathbf V$$" style="text;html=1;align=center;verticalAlign=middle;resizable=0;points=[];labelBackgroundColor=#ffffff;" parent="xWk239bcf9PCL0d0337z-16" vertex="1" connectable="0">
          <mxGeometry x="-0.125" relative="1" as="geometry">
            <mxPoint y="-5" as="offset" />
          </mxGeometry>
        </mxCell>
        <mxCell id="xWk239bcf9PCL0d0337z-18" style="rounded=0;orthogonalLoop=1;jettySize=auto;html=1;exitX=1;exitY=0.5;exitDx=0;exitDy=0;entryX=0;entryY=0.5;entryDx=0;entryDy=0;" parent="xWk239bcf9PCL0d0337z-1" source="xWk239bcf9PCL0d0337z-22" target="xWk239bcf9PCL0d0337z-32" edge="1">
          <mxGeometry relative="1" as="geometry" />
        </mxCell>
        <mxCell id="xWk239bcf9PCL0d0337z-19" value="$$\mathbf W$$" style="text;html=1;align=center;verticalAlign=middle;resizable=0;points=[];labelBackgroundColor=#ffffff;" parent="xWk239bcf9PCL0d0337z-18" vertex="1" connectable="0">
          <mxGeometry x="0.025" y="-1" relative="1" as="geometry">
            <mxPoint as="offset" />
          </mxGeometry>
        </mxCell>
        <mxCell id="xWk239bcf9PCL0d0337z-20" value="&lt;span style=&quot;white-space: normal&quot;&gt;$$\mathbf h_{t}$$&lt;/span&gt;" style="ellipse;whiteSpace=wrap;html=1;aspect=fixed;" parent="xWk239bcf9PCL0d0337z-1" vertex="1">
          <mxGeometry x="280" y="480" width="80" height="80" as="geometry" />
        </mxCell>
        <mxCell id="xWk239bcf9PCL0d0337z-21" style="edgeStyle=orthogonalEdgeStyle;rounded=0;orthogonalLoop=1;jettySize=auto;html=1;exitX=0.5;exitY=0;exitDx=0;exitDy=0;entryX=0.5;entryY=1;entryDx=0;entryDy=0;" parent="xWk239bcf9PCL0d0337z-1" source="xWk239bcf9PCL0d0337z-22" target="xWk239bcf9PCL0d0337z-24" edge="1">
          <mxGeometry relative="1" as="geometry" />
        </mxCell>
        <mxCell id="xWk239bcf9PCL0d0337z-22" value="&lt;span style=&quot;white-space: normal&quot;&gt;$$\mathbf o_{t}$$&lt;/span&gt;" style="ellipse;whiteSpace=wrap;html=1;aspect=fixed;" parent="xWk239bcf9PCL0d0337z-1" vertex="1">
          <mxGeometry x="280" y="320" width="80" height="80" as="geometry" />
        </mxCell>
        <mxCell id="xWk239bcf9PCL0d0337z-23" style="edgeStyle=orthogonalEdgeStyle;rounded=0;orthogonalLoop=1;jettySize=auto;html=1;exitX=0.5;exitY=0;exitDx=0;exitDy=0;entryX=0.5;entryY=1;entryDx=0;entryDy=0;" parent="xWk239bcf9PCL0d0337z-1" source="xWk239bcf9PCL0d0337z-24" target="xWk239bcf9PCL0d0337z-25" edge="1">
          <mxGeometry relative="1" as="geometry" />
        </mxCell>
        <mxCell id="xWk239bcf9PCL0d0337z-24" value="&lt;span style=&quot;white-space: normal&quot;&gt;$$L_{t}$$&lt;/span&gt;" style="ellipse;whiteSpace=wrap;html=1;aspect=fixed;" parent="xWk239bcf9PCL0d0337z-1" vertex="1">
          <mxGeometry x="280" y="200" width="80" height="80" as="geometry" />
        </mxCell>
        <mxCell id="xWk239bcf9PCL0d0337z-25" value="&lt;span style=&quot;white-space: normal&quot;&gt;$$y_{t}$$&lt;/span&gt;" style="ellipse;whiteSpace=wrap;html=1;aspect=fixed;" parent="xWk239bcf9PCL0d0337z-1" vertex="1">
          <mxGeometry x="280" y="80" width="80" height="80" as="geometry" />
        </mxCell>
        <mxCell id="xWk239bcf9PCL0d0337z-26" style="edgeStyle=orthogonalEdgeStyle;rounded=0;orthogonalLoop=1;jettySize=auto;html=1;exitX=0.5;exitY=0;exitDx=0;exitDy=0;entryX=0.5;entryY=1;entryDx=0;entryDy=0;" parent="xWk239bcf9PCL0d0337z-1" source="xWk239bcf9PCL0d0337z-27" target="xWk239bcf9PCL0d0337z-20" edge="1">
          <mxGeometry relative="1" as="geometry" />
        </mxCell>
        <mxCell id="s9IbJei1juBBMBtUCke6-0" value="$$\mathbf U$$" style="text;html=1;align=center;verticalAlign=middle;resizable=0;points=[];labelBackgroundColor=#ffffff;" parent="xWk239bcf9PCL0d0337z-26" vertex="1" connectable="0">
          <mxGeometry x="-0.0778" relative="1" as="geometry">
            <mxPoint as="offset" />
          </mxGeometry>
        </mxCell>
        <mxCell id="xWk239bcf9PCL0d0337z-27" value="$$\mathbf x_{t}$$" style="ellipse;whiteSpace=wrap;html=1;aspect=fixed;" parent="xWk239bcf9PCL0d0337z-1" vertex="1">
          <mxGeometry x="280" y="620" width="80" height="80" as="geometry" />
        </mxCell>
        <mxCell id="xWk239bcf9PCL0d0337z-28" style="edgeStyle=orthogonalEdgeStyle;rounded=0;orthogonalLoop=1;jettySize=auto;html=1;exitX=0.5;exitY=0;exitDx=0;exitDy=0;entryX=0.5;entryY=1;entryDx=0;entryDy=0;fontStyle=1" parent="xWk239bcf9PCL0d0337z-1" source="xWk239bcf9PCL0d0337z-32" target="xWk239bcf9PCL0d0337z-34" edge="1">
          <mxGeometry relative="1" as="geometry" />
        </mxCell>
        <mxCell id="xWk239bcf9PCL0d0337z-29" value="$$\mathbf V$$" style="text;html=1;align=center;verticalAlign=middle;resizable=0;points=[];labelBackgroundColor=#ffffff;" parent="xWk239bcf9PCL0d0337z-28" vertex="1" connectable="0">
          <mxGeometry x="-0.1583" relative="1" as="geometry">
            <mxPoint y="-6" as="offset" />
          </mxGeometry>
        </mxCell>
        <mxCell id="xWk239bcf9PCL0d0337z-30" style="rounded=0;orthogonalLoop=1;jettySize=auto;html=1;exitX=1;exitY=0.5;exitDx=0;exitDy=0;" parent="xWk239bcf9PCL0d0337z-1" source="xWk239bcf9PCL0d0337z-34" edge="1">
          <mxGeometry relative="1" as="geometry">
            <mxPoint x="600" y="520" as="targetPoint" />
          </mxGeometry>
        </mxCell>
        <mxCell id="xWk239bcf9PCL0d0337z-31" value="$$\mathbf W$$" style="text;html=1;align=center;verticalAlign=middle;resizable=0;points=[];labelBackgroundColor=#ffffff;" parent="xWk239bcf9PCL0d0337z-30" vertex="1" connectable="0">
          <mxGeometry x="0.025" y="-2" relative="1" as="geometry">
            <mxPoint as="offset" />
          </mxGeometry>
        </mxCell>
        <mxCell id="xWk239bcf9PCL0d0337z-32" value="&lt;span style=&quot;white-space: normal&quot;&gt;$$\mathbf h_{t+1}$$&lt;/span&gt;" style="ellipse;whiteSpace=wrap;html=1;aspect=fixed;fontStyle=1" parent="xWk239bcf9PCL0d0337z-1" vertex="1">
          <mxGeometry x="440" y="480" width="80" height="80" as="geometry" />
        </mxCell>
        <mxCell id="xWk239bcf9PCL0d0337z-33" style="edgeStyle=orthogonalEdgeStyle;rounded=0;orthogonalLoop=1;jettySize=auto;html=1;exitX=0.5;exitY=0;exitDx=0;exitDy=0;entryX=0.5;entryY=1;entryDx=0;entryDy=0;fontStyle=1" parent="xWk239bcf9PCL0d0337z-1" source="xWk239bcf9PCL0d0337z-34" target="xWk239bcf9PCL0d0337z-36" edge="1">
          <mxGeometry relative="1" as="geometry" />
        </mxCell>
        <mxCell id="xWk239bcf9PCL0d0337z-34" value="&lt;span style=&quot;white-space: normal&quot;&gt;$$\mathbf o_{t}$$&lt;/span&gt;" style="ellipse;whiteSpace=wrap;html=1;aspect=fixed;fontStyle=1" parent="xWk239bcf9PCL0d0337z-1" vertex="1">
          <mxGeometry x="440" y="320" width="80" height="80" as="geometry" />
        </mxCell>
        <mxCell id="xWk239bcf9PCL0d0337z-35" style="edgeStyle=orthogonalEdgeStyle;rounded=0;orthogonalLoop=1;jettySize=auto;html=1;exitX=0.5;exitY=0;exitDx=0;exitDy=0;entryX=0.5;entryY=1;entryDx=0;entryDy=0;fontStyle=1" parent="xWk239bcf9PCL0d0337z-1" source="xWk239bcf9PCL0d0337z-36" target="xWk239bcf9PCL0d0337z-37" edge="1">
          <mxGeometry relative="1" as="geometry" />
        </mxCell>
        <mxCell id="xWk239bcf9PCL0d0337z-36" value="&lt;span style=&quot;white-space: normal&quot;&gt;$$L_{t+1}$$&lt;/span&gt;" style="ellipse;whiteSpace=wrap;html=1;aspect=fixed;fontStyle=1" parent="xWk239bcf9PCL0d0337z-1" vertex="1">
          <mxGeometry x="440" y="200" width="80" height="80" as="geometry" />
        </mxCell>
        <mxCell id="xWk239bcf9PCL0d0337z-37" value="&lt;span style=&quot;white-space: normal&quot;&gt;$$y_{t+1}$$&lt;/span&gt;" style="ellipse;whiteSpace=wrap;html=1;aspect=fixed;fontStyle=1" parent="xWk239bcf9PCL0d0337z-1" vertex="1">
          <mxGeometry x="440" y="80" width="80" height="80" as="geometry" />
        </mxCell>
        <mxCell id="xWk239bcf9PCL0d0337z-38" style="edgeStyle=orthogonalEdgeStyle;rounded=0;orthogonalLoop=1;jettySize=auto;html=1;exitX=0.5;exitY=0;exitDx=0;exitDy=0;entryX=0.5;entryY=1;entryDx=0;entryDy=0;fontStyle=1" parent="xWk239bcf9PCL0d0337z-1" source="xWk239bcf9PCL0d0337z-39" target="xWk239bcf9PCL0d0337z-32" edge="1">
          <mxGeometry relative="1" as="geometry" />
        </mxCell>
        <mxCell id="s9IbJei1juBBMBtUCke6-1" value="$$\mathbf U$$" style="text;html=1;align=center;verticalAlign=middle;resizable=0;points=[];labelBackgroundColor=#ffffff;" parent="xWk239bcf9PCL0d0337z-38" vertex="1" connectable="0">
          <mxGeometry x="-0.0778" y="-1" relative="1" as="geometry">
            <mxPoint as="offset" />
          </mxGeometry>
        </mxCell>
        <mxCell id="xWk239bcf9PCL0d0337z-39" value="$$\mathbf x_{t+1}$$" style="ellipse;whiteSpace=wrap;html=1;aspect=fixed;fontStyle=1" parent="xWk239bcf9PCL0d0337z-1" vertex="1">
          <mxGeometry x="440" y="620" width="80" height="80" as="geometry" />
        </mxCell>
      </root>
    </mxGraphModel>
  </diagram>
  <diagram id="3JzcEZUPere_hhZgtDRO" name="BPTT">
    <mxGraphModel dx="1433" dy="913" grid="1" gridSize="10" guides="1" tooltips="1" connect="1" arrows="1" fold="1" page="1" pageScale="1" pageWidth="1100" pageHeight="850" math="1" shadow="0">
      <root>
        <mxCell id="uUpdAyy-MgbbAYwYIvmv-0" />
        <mxCell id="uUpdAyy-MgbbAYwYIvmv-1" parent="uUpdAyy-MgbbAYwYIvmv-0" />
        <mxCell id="uUpdAyy-MgbbAYwYIvmv-2" value="CE" style="ellipse;whiteSpace=wrap;html=1;aspect=fixed;" vertex="1" parent="uUpdAyy-MgbbAYwYIvmv-1">
          <mxGeometry x="240" y="80" width="80" height="80" as="geometry" />
        </mxCell>
        <mxCell id="uUpdAyy-MgbbAYwYIvmv-4" style="edgeStyle=orthogonalEdgeStyle;rounded=0;orthogonalLoop=1;jettySize=auto;html=1;exitX=0.5;exitY=0;exitDx=0;exitDy=0;entryX=0.5;entryY=1;entryDx=0;entryDy=0;" edge="1" parent="uUpdAyy-MgbbAYwYIvmv-1" source="uUpdAyy-MgbbAYwYIvmv-3" target="uUpdAyy-MgbbAYwYIvmv-2">
          <mxGeometry relative="1" as="geometry" />
        </mxCell>
        <mxCell id="uUpdAyy-MgbbAYwYIvmv-5" value="$$\hat \mathbf y$$" style="text;html=1;align=center;verticalAlign=middle;resizable=0;points=[];labelBackgroundColor=#ffffff;" vertex="1" connectable="0" parent="uUpdAyy-MgbbAYwYIvmv-4">
          <mxGeometry x="-0.15" relative="1" as="geometry">
            <mxPoint as="offset" />
          </mxGeometry>
        </mxCell>
        <mxCell id="uUpdAyy-MgbbAYwYIvmv-3" value="SOFTMAX" style="ellipse;whiteSpace=wrap;html=1;aspect=fixed;" vertex="1" parent="uUpdAyy-MgbbAYwYIvmv-1">
          <mxGeometry x="240" y="250" width="80" height="80" as="geometry" />
        </mxCell>
      </root>
    </mxGraphModel>
  </diagram>
</mxfile>
